<svg xmlns="http://www.w3.org/2000/svg" xmlns:xlink="http://www.w3.org/1999/xlink" viewBox="0 0 141.73 32.74"><defs><style>.cls-1{fill:url(#Безымянный_градиент_47);}.cls-2{fill:url(#Безымянный_градиент_47-2);}.cls-3{fill:url(#Безымянный_градиент_47-3);}.cls-4{fill:url(#Безымянный_градиент_47-4);}.cls-5{fill:url(#Безымянный_градиент_47-5);}.cls-6{fill:url(#Безымянный_градиент_47-6);}.cls-7{fill:url(#Безымянный_градиент_47-7);}.cls-8{fill:url(#Безымянный_градиент_47-8);}.cls-9{fill:url(#Безымянный_градиент_47-9);}.cls-10{fill:url(#Безымянный_градиент_47-10);}.cls-11{fill:url(#Безымянный_градиент_47-11);}.cls-12{fill:url(#Безымянный_градиент_47-12);}</style><linearGradient id="Безымянный_градиент_47" y1="24.68" x2="141.14" y2="24.68" gradientUnits="userSpaceOnUse"><stop offset="0" stop-color="#afaf00"/><stop offset="1" stop-color="#ffd400"/></linearGradient><linearGradient id="Безымянный_градиент_47-2" x1="4.42" y1="27.85" x2="15.76" y2="27.85" xlink:href="#Безымянный_градиент_47"/><linearGradient id="Безымянный_градиент_47-3" x1="73.58" y1="7.03" x2="73.58" y2="7.03" xlink:href="#Безымянный_градиент_47"/><linearGradient id="Безымянный_градиент_47-4" x1="44.94" y1="12.75" x2="132.37" y2="12.75" xlink:href="#Безымянный_градиент_47"/><linearGradient id="Безымянный_градиент_47-5" x1="125.55" y1="14.1" x2="138.1" y2="14.1" xlink:href="#Безымянный_градиент_47"/><linearGradient id="Безымянный_градиент_47-6" x1="117.92" y1="0" x2="117.92" y2="0" xlink:href="#Безымянный_градиент_47"/><linearGradient id="Безымянный_градиент_47-7" x1="50.21" y1="18.31" x2="56.42" y2="18.31" xlink:href="#Безымянный_градиент_47"/><linearGradient id="Безымянный_градиент_47-8" x1="45.26" y1="30.61" x2="103.22" y2="30.61" xlink:href="#Безымянный_градиент_47"/><linearGradient id="Безымянный_градиент_47-9" x1="105.99" y1="33.48" x2="131.98" y2="33.48" xlink:href="#Безымянный_градиент_47"/><linearGradient id="Безымянный_градиент_47-10" x1="13.29" y1="33.49" x2="39.28" y2="33.49" xlink:href="#Безымянный_градиент_47"/><linearGradient id="Безымянный_градиент_47-11" x1="133.13" y1="23.77" x2="141.73" y2="23.77" xlink:href="#Безымянный_градиент_47"/><linearGradient id="Безымянный_градиент_47-12" x1="136.87" y1="24.04" x2="140.17" y2="24.04" xlink:href="#Безымянный_градиент_47"/></defs><title>Ресурс 2</title><g id="Слой_2" data-name="Слой 2"><g id="Слой_1-2" data-name="Слой 1"><path class="cls-1" d="M0,30.66a30.09,30.09,0,0,1,7.6-5.39A57.6,57.6,0,0,1,27,21c7.78-.32,68.36-.38,68.36-.38s20.6-.18,23.9-.59,19.62-.85,21.27-1.94c.32,1.15.65,2,.65,2S131,21.55,129.06,21.67s-20.86.68-21.39.68L55,22.44s-25.11-.21-27.29-.12-11.29.62-16.94,3S4,28.54.88,31.31Z" transform="translate(0 -5.25)"/><path class="cls-2" d="M4.42,29.92a7.9,7.9,0,0,0,1.86-.18c.77-.21,7.43-3.15,9.49-4.83-1.92,1.92-5.86,5-8.85,5.84l-.22,0A3.7,3.7,0,0,1,4.42,29.92Z" transform="translate(0 -5.25)"/><path class="cls-3" d="M73.58,7" transform="translate(0 -5.25)"/><path class="cls-4" d="M44.94,20.26h1.8S59.55,7.2,75.4,6.73a181.25,181.25,0,0,1,30.47,1.56c13.92,2.15,24.42.88,26.38.3a.16.16,0,0,0,.11-.21A13.71,13.71,0,0,1,132,7s-11.2,1.44-19.8.32-30.88-2.48-36.83-2S56.72,8.47,44.94,20.26Z" transform="translate(0 -5.25)"/><path class="cls-5" d="M125.55,10.09l1.93-.13s7,7.35,10.62,7.57c-2.6.73-7.16.84-7.37.63Z" transform="translate(0 -5.25)"/><path class="cls-6" d="M117.92,0" transform="translate(0 -5.25)"/><path class="cls-7" d="M50.21,20.26s.21-3.27,5.19-3.89a4.69,4.69,0,0,1,1,3.51c-1.44,0-3.42,0-3.42,0v.38Z" transform="translate(0 -5.25)"/><path class="cls-8" d="M45.26,32.57s54.84-9.19,58,.12C93.38,27.86,67.74,30.87,45.26,32.57Z" transform="translate(0 -5.25)"/><path class="cls-9" d="M106,37.88s3.62-8.8,12.86-8.8S132,37.88,132,37.88s-3-6.9-13-7S106,37.88,106,37.88Z" transform="translate(0 -5.25)"/><path class="cls-10" d="M13.29,38A13.53,13.53,0,0,1,25.9,29c9.9-.24,13.38,9,13.38,9A16.19,16.19,0,0,0,26,30.61,14.38,14.38,0,0,0,13.29,38Z" transform="translate(0 -5.25)"/><path class="cls-11" d="M140.32,21.61s-2.86-.68-7.19,2.62c2.48,2.59,8.6,1.53,8.6,1.53s-6.07-.38-6.84-1.59C135.57,22.91,140.32,21.61,140.32,21.61Z" transform="translate(0 -5.25)"/><path class="cls-12" d="M136.87,23.62l.77.68a.72.72,0,0,0,.47.18h2.06" transform="translate(0 -5.25)"/></g></g></svg>